<?xml version="1.0" encoding="utf-8"?>
<!-- Generator: Adobe Illustrator 28.2.0, SVG Export Plug-In . SVG Version: 6.00 Build 0)  -->
<svg version="1.1" id="Layer_1" xmlns="http://www.w3.org/2000/svg" xmlns:xlink="http://www.w3.org/1999/xlink" x="0px" y="0px"
	 viewBox="0 0 128 128" style="enable-background:new 0 0 128 128;" xml:space="preserve">
<style type="text/css">
	.st0{fill:#2E70E5;}
</style>
<path class="st0" d="M108,16H61.8c0,11.5,9.3,20.8,20.8,20.8h8.5v8.2c0,11.5,9.3,20.8,20.8,20.8V20C112,17.8,110.2,16,108,16z"/>
<path class="st0" d="M85.1,39H38.9c0,11.5,9.3,20.8,20.8,20.8h8.5v8.2c0,11.5,9.3,20.8,20.8,20.8V43C89.1,40.8,87.3,39,85.1,39
	L85.1,39z"/>
<path class="st0" d="M62.2,62.1H16c0,11.5,9.3,20.8,20.8,20.8h8.5v8.2c0,11.5,9.3,20.8,20.8,20.8V66.1
	C66.2,63.9,64.4,62.1,62.2,62.1L62.2,62.1z"/>
</svg>
