<?xml version="1.0" encoding="utf-8"?>
<!-- Generator: Adobe Illustrator 28.2.0, SVG Export Plug-In . SVG Version: 6.00 Build 0)  -->
<svg version="1.1" id="Layer_1" xmlns="http://www.w3.org/2000/svg" xmlns:xlink="http://www.w3.org/1999/xlink" x="0px" y="0px"
	 viewBox="0 0 81 81" style="enable-background:new 0 0 81 81;" xml:space="preserve">
<style type="text/css">
	.st0{fill:#E88A0F;}
</style>
<symbol  id="A" viewBox="-40 -40 80 80">
	<path class="st0" d="M39.6,4.4l-9.8-4.8L39-4.7c0.7-0.3,1.1-1.2,0.6-2.1l-1-1.1c-0.6-0.7-1.3-1.2-2.1-0.9l-6.9,2.6
		c-0.2,0.1-0.3,0.1-0.5,0l-2.7-0.8c-0.2-0.1-0.4,0-0.6,0.1l-2.9,2.7c-0.6-3.7-2.1-7.1-4.3-10l4.2,0c0.2,0,0.3-0.1,0.4-0.3l1.5-2.7
		c0.1-0.1,0.2-0.3,0.3-0.3l6.9-2.9c0.4-0.2,0.7-1.1,0.6-1.6l-0.2-2c-0.2-0.6-1-1.1-1.4-1l-10.3,3.6l3.5-9.7c0.3-0.8-0.1-1.7-1-1.9
		L21.8-33c-0.9,0-1.8,0.1-2.1,0.9l-3.1,6.7c-0.1,0.1-0.2,0.3-0.3,0.3l-2.4,1.4c-0.2,0.1-0.3,0.3-0.3,0.5l-0.1,4
		c-2.9-2.1-6.4-3.5-10.1-4l2.9-3c0.1-0.1,0.2-0.3,0.1-0.5l-0.9-3c0-0.2,0-0.3,0-0.5L8.4-37c0.2-0.4-0.3-1.2-0.7-1.6l-1.6-1.3
		c-0.5-0.3-1.5-0.1-1.7,0.3l-4.8,9.8L-4.7-39c-0.3-0.7-1.2-1.1-2.1-0.6l-1.1,1c-0.7,0.6-1.2,1.3-0.9,2.1l2.6,6.9
		c0.1,0.2,0.1,0.3,0,0.5l-0.8,2.7c-0.1,0.2,0,0.4,0.1,0.6l2.7,2.9c-3.6,0.6-7,2.1-10,4.3l0-4.2c0-0.2-0.1-0.3-0.3-0.4l-2.7-1.5
		c-0.1-0.1-0.2-0.2-0.3-0.3l-2.9-6.9c-0.2-0.4-1.1-0.7-1.6-0.6l-2,0.2c-0.6,0.2-1.1,1-1,1.4l3.6,10.3l-9.7-3.5
		c-0.8-0.3-1.7,0.1-1.9,1l-0.1,1.5c0,0.9,0.1,1.8,0.9,2.1l6.7,3.1c0.1,0.1,0.3,0.2,0.3,0.3l1.4,2.4c0.1,0.2,0.3,0.3,0.5,0.3l4,0.1
		c-2.1,3-3.5,6.5-4,10.1l-3-2.9c-0.1-0.1-0.3-0.2-0.5-0.1l-3,0.9c-0.2,0-0.3,0-0.5,0L-37-8.4c-0.4-0.2-1.2,0.3-1.6,0.7l-1.3,1.6
		c-0.3,0.5-0.1,1.5,0.3,1.7l9.8,4.8L-39,4.7c-0.7,0.3-1.1,1.2-0.6,2.1l1,1.1c0.6,0.7,1.3,1.2,2.1,0.9l6.9-2.6c0.2-0.1,0.3-0.1,0.5,0
		l2.7,0.8c0.2,0.1,0.4,0,0.6-0.1l2.9-2.7c0.6,3.6,2.1,7,4.3,10l-4.2,0c-0.2,0-0.3,0.1-0.4,0.3l-1.5,2.7c-0.1,0.1-0.2,0.3-0.3,0.3
		l-6.9,2.9c-0.4,0.2-0.7,1.1-0.6,1.6l0.2,2c0.2,0.6,1,1.1,1.4,1l10.3-3.6l-3.5,9.7c-0.3,0.8,0.1,1.7,1,1.9l1.5,0.1
		c0.9,0,1.8-0.1,2.1-0.9l3.1-6.7c0.1-0.1,0.2-0.3,0.3-0.3l2.4-1.4c0.2-0.1,0.3-0.3,0.3-0.5l0.1-4c3,2.1,6.5,3.5,10.1,4l-2.9,3
		c-0.1,0.1-0.2,0.3-0.1,0.5l0.9,3c0,0.2,0,0.3,0,0.5L-8.4,37c-0.2,0.4,0.3,1.2,0.7,1.6l1.6,1.3c0.5,0.3,1.5,0.1,1.7-0.3l4.8-9.8
		L4.7,39c0.3,0.7,1.2,1.1,2.1,0.6l1.1-1c0.7-0.6,1.2-1.3,0.9-2.1l-2.6-6.9c-0.1-0.2-0.1-0.3,0-0.5l0.8-2.7c0.1-0.2,0-0.4-0.1-0.6
		l-2.7-2.9c3.7-0.6,7.1-2.1,10-4.3l0,4.2c0,0.2,0.1,0.3,0.3,0.4l2.7,1.5c0.1,0.1,0.2,0.2,0.3,0.3l2.9,6.9c0.2,0.4,1.1,0.7,1.6,0.6
		l2-0.2c0.6-0.2,1.1-1,1-1.4l-3.6-10.3l9.7,3.5c0.8,0.3,1.7-0.1,1.9-1l0.1-1.5c0-0.9-0.1-1.8-0.9-2.1l-6.7-3.1
		c-0.1-0.1-0.3-0.2-0.3-0.3l-1.4-2.4c-0.1-0.2-0.3-0.3-0.5-0.3l-4-0.1c2.1-3,3.5-6.5,4-10.1l3,2.9c0.1,0.1,0.3,0.2,0.5,0.1l3-0.9
		c0.2,0,0.3,0,0.5,0L37,8.4c0.4,0.2,1.2-0.3,1.6-0.7l1.3-1.6C40.2,5.5,39.9,4.6,39.6,4.4L39.6,4.4L39.6,4.4z M16.8-2.6h-5
		c-0.4-1.6-1.1-3.2-2-4.5l3.5-3.5C15.1-8.3,16.3-5.5,16.8-2.6L16.8-2.6L16.8-2.6z M6.5-10.2c-1.4-0.9-2.9-1.5-4.6-1.7v-4.9
		c3,0.3,5.8,1.5,8.1,3.2L6.5-10.2C6.5-10.2,6.5-10.2,6.5-10.2z M5.9,0c0,3.3-2.6,5.9-5.9,5.9c-3.3,0-5.9-2.6-5.9-5.9
		c0-3.3,2.6-5.9,5.9-5.9C3.3-5.9,5.9-3.3,5.9,0L5.9,0z M-2.6-16.8v5c-1.6,0.4-3.1,1-4.5,2l-3.5-3.5C-8.3-15.1-5.5-16.3-2.6-16.8
		L-2.6-16.8L-2.6-16.8z M-10.2-6.5c-0.9,1.4-1.5,3-1.7,4.6h-4.9c0.3-2.9,1.4-5.7,3.2-8.1L-10.2-6.5C-10.2-6.5-10.2-6.5-10.2-6.5z
		 M-16.8,2.6h5c0.4,1.6,1.1,3.2,2,4.5l-3.5,3.5C-15.1,8.3-16.3,5.5-16.8,2.6C-16.8,2.6-16.8,2.6-16.8,2.6z M-6.5,10.2
		c1.4,0.9,3,1.5,4.6,1.7v4.9c-2.9-0.3-5.7-1.4-8.1-3.2L-6.5,10.2L-6.5,10.2z M2.6,16.8v-5c1.6-0.4,3.1-1,4.5-2l3.5,3.5
		C8.3,15.1,5.5,16.3,2.6,16.8L2.6,16.8L2.6,16.8z M10.2,6.5c0.9-1.4,1.5-2.9,1.7-4.6h4.9c-0.3,2.9-1.4,5.7-3.2,8.1L10.2,6.5
		C10.2,6.5,10.2,6.5,10.2,6.5z"/>
</symbol>
<use xlink:href="#A"  width="80" height="80" id="XMLID_00000137824466444246177830000013722706937240012692_" x="-40" y="-40" transform="matrix(1 0 0 1 40.3145 40.3181)" style="overflow:visible;"/>
</svg>
