<?xml version="1.0" encoding="utf-8"?>
<!-- Generator: Adobe Illustrator 28.2.0, SVG Export Plug-In . SVG Version: 6.00 Build 0)  -->
<svg version="1.1" id="Layer_1" xmlns="http://www.w3.org/2000/svg" xmlns:xlink="http://www.w3.org/1999/xlink" x="0px" y="0px"
	 viewBox="0 0 128 128" style="enable-background:new 0 0 128 128;" xml:space="preserve">
<style type="text/css">
	.st0{fill:none;}
	.st1{fill:#01628B;}
	.st2{fill:#E38F25;}
	.st3{fill-rule:evenodd;clip-rule:evenodd;fill:#01628B;}
	.st4{fill-rule:evenodd;clip-rule:evenodd;fill:#E38F25;}
</style>
<path class="st0" d="M0,0"/>
<path class="st1" d="M1,91.5h4.1V75.2l6.4,14.3c0.8,1.7,1.8,2.3,3.8,2.3s3-0.6,3.8-2.3l6.4-14.3v16.4h4.1V75.2c0-1.6-0.6-2.4-2-2.8
	c-3.2-1-5.3-0.1-6.2,2l-6.3,14.1L9.2,74.4c-0.9-2.1-3.1-3-6.2-2c-1.3,0.4-2,1.2-2,2.8V91.5z M33.2,78.2h4.1v9c0,0.5,0.2,1.6,2.4,1.7
	c1.2,0,9,0,9,0V78.2H53c0,0,0,14.7,0,14.7c0,3.6-4.5,4.4-6.6,4.5H33.3v-2.8l13.1,0c2.7-0.3,2.4-1.6,2.4-2.1v-1.1H40
	c-4.1,0-6.7-1.8-6.7-3.9C33.2,87.3,33.3,78.3,33.2,78.2L33.2,78.2z"/>
<path class="st2" d="M56.2,91.5h11.9c1.4,0,2.8-0.3,3.8-0.8c1.8-0.8,2.7-1.9,2.7-3.4v-3c0-1.2-1-2.3-3-3.1c-1-0.4-2.3-0.6-3.6-0.6
	h-5c-1.7,0-2.5-0.5-2.7-1.6c0-0.1,0-0.2,0-0.4v-1.9c0-0.1,0-0.2,0-0.3c0.2-0.9,0.6-1.1,2.1-1.2c0.1,0,0.3,0,0.4,0h11.8v-2.8H63.1
	c-1.7,0-2.6,0.1-3.4,0.3c-2.5,0.8-3.6,2-3.6,4.1v2.4c0,1.9,2.1,3.5,5.7,3.8c0.4,0,0.8,0.1,1.2,0.1h4.3c0.2,0,0.3,0,0.4,0
	c1.3,0.1,1.9,0.3,2.3,0.8c0.2,0.2,0.3,0.5,0.3,0.7v2.4c0,0.3-0.2,0.7-0.6,1c-0.4,0.3-1,0.5-1.8,0.6c-0.2,0-0.3,0-0.4,0H56.2
	L56.2,91.5L56.2,91.5z M100.5,86.7c0,2.8,2.1,4.4,6.4,4.8c0.4,0,0.8,0,1.2,0.1h10.8v-2.8H108c-2.4,0-3.4-0.6-3.4-2.1V72.4h-4.1
	L100.5,86.7L100.5,86.7z M77.3,86.9V77c0-2.5,1.8-4,5.2-4.5c0.4-0.1,0.7-0.1,1.1-0.1h7.9c0.4,0,0.8,0,1.2,0.1c3.5,0.5,5.2,2,5.2,4.5
	v9.9c0,2-0.7,3.1-2.5,3.8l4.1,3.7h-4.8l-3.3-3l-3.3,0.2h-4.4c-0.8,0-1.6-0.1-2.4-0.3C78.6,90.6,77.3,89.2,77.3,86.9L77.3,86.9z
	 M81.8,86.6c0,0.1,0,0.3,0.1,0.4c0.2,1.1,1.3,1.8,3,1.8h3.8l-3.5-3.1h4.8l3,2.7c0.6-0.3,0.9-0.8,1-1.3c0-0.1,0-0.3,0-0.4v-9.5
	c0-0.1,0-0.2,0-0.4c-0.2-1.1-1.3-1.7-2.9-1.7h-6.3c-1.8,0-3,0.8-3,2.1L81.8,86.6L81.8,86.6z"/>
<g>
	<path class="st1" d="M122.6,67.8c-2.6-0.1-4.5,0.2-6.2,0.9c-0.5,0.2-1.2,0.2-1.3,0.8c0.3,0.3,0.3,0.7,0.5,1c0.4,0.6,1.1,1.5,1.7,2
		c0.7,0.5,1.3,1,2,1.5c1.2,0.8,2.6,1.2,3.8,2c0.7,0.4,1.4,1,2.1,1.5c0.3,0.3,0.6,0.6,1,0.8v-0.1c-0.2-0.3-0.3-0.7-0.5-1l-0.9-0.9
		c-0.9-1.2-2.1-2.3-3.3-3.2c-1-0.7-3.2-1.7-3.6-2.8l-0.1-0.1c0.7-0.1,1.5-0.3,2.2-0.5c1.1-0.3,2.1-0.2,3.2-0.5l1.5-0.4v-0.3
		c-0.6-0.6-1-1.4-1.6-1.9c-1.6-1.4-3.4-2.8-5.2-3.9c-1-0.6-2.3-1.1-3.3-1.6c-0.4-0.2-1-0.3-1.2-0.6c-0.6-0.7-0.9-1.6-1.3-2.5
		c-0.9-1.8-1.8-3.7-2.6-5.5c-0.6-1.3-0.9-2.5-1.6-3.6c-3.3-5.4-6.8-8.7-12.3-11.9c-1.2-0.7-2.6-1-4.1-1.3L89,35.4
		c-0.5-0.2-1-0.8-1.5-1.1c-1.8-1.1-6.5-3.6-7.8-0.4c-0.9,2.1,1.3,4.1,2,5.1c0.5,0.7,1.2,1.6,1.6,2.4c0.3,0.5,0.3,1.1,0.5,1.7
		c0.5,1.4,1,3,1.7,4.3c0.3,0.7,0.7,1.4,1.2,2c0.3,0.4,0.7,0.5,0.8,1.1c-0.4,0.6-0.5,1.6-0.7,2.4c-1.1,3.6-0.7,8,0.9,10.7
		c0.5,0.8,1.7,2.6,3.3,1.9c1.4-0.6,1.1-2.4,1.5-4c0.1-0.4,0-0.6,0.2-0.9v0.1l1.3,2.6c1,1.6,2.7,3.2,4.1,4.3c0.8,0.6,1.4,1.6,2.3,1.9
		v-0.1h-0.1c-0.2-0.3-0.5-0.4-0.7-0.7c-0.6-0.6-1.2-1.2-1.7-1.9C96.7,65,95.6,63,94.5,61c-0.5-1-1-2.1-1.4-3c-0.2-0.4-0.2-1-0.5-1.2
		c-0.5,0.7-1.2,1.3-1.5,2.2c-0.6,1.4-0.7,3-0.9,4.8c-0.1,0-0.1,0-0.1,0.1c-1-0.2-1.4-1.3-1.7-2.2c-0.9-2.3-1.1-5.9-0.3-8.5
		c0.2-0.7,1.2-2.8,0.8-3.4c-0.2-0.6-0.8-1-1.2-1.5c-0.4-0.6-0.9-1.4-1.2-2c-0.8-1.8-1.1-3.7-2-5.5c-0.4-0.8-1.1-1.7-1.6-2.5
		c-0.6-0.8-1.3-1.5-1.7-2.5c-0.2-0.4-0.4-0.9-0.1-1.3c0-0.2,0.2-0.4,0.4-0.4c0.4-0.3,1.6,0.1,2,0.3c1.2,0.5,2.1,0.9,3.1,1.6
		c0.5,0.3,1,0.9,1.5,1.1h0.7c1,0.2,2.2,0.1,3.1,0.4c1.7,0.5,3.2,1.3,4.6,2.2c4.2,2.6,7.6,6.4,9.9,10.9c0.4,0.7,0.5,1.4,0.9,2.2
		c0.7,1.5,1.5,3.1,2.2,4.6c0.7,1.5,1.3,3,2.2,4.3c0.5,0.7,2.4,1,3.3,1.4c0.6,0.3,1.6,0.5,2.2,0.9c1.1,0.7,2.2,1.5,3.2,2.2
		C120.9,66.4,122.5,67.2,122.6,67.8L122.6,67.8z"/>
	<path class="st3" d="M90.1,40.2c-0.5,0-0.9,0.1-1.3,0.1v0.1h0.1c0.3,0.5,0.7,0.9,1,1.3l0.7,1.5l0.1-0.1c0.4-0.3,0.7-0.8,0.7-1.6
		c-0.2-0.2-0.2-0.4-0.4-0.7C90.8,40.6,90.4,40.4,90.1,40.2L90.1,40.2z"/>
</g>
<path class="st4" d="M120.9,88.7c0,1.8,1.4,3.1,3.1,3.1s3.1-1.2,3.1-3.1c0-1.8-1.4-3.1-3.1-3.1S120.9,86.9,120.9,88.7z M126.3,88.7
	c0,1.4-1.1,2.4-2.4,2.4c-1.3,0-2.4-1-2.4-2.4s1-2.4,2.4-2.4C125.2,86.3,126.3,87.3,126.3,88.7z M124.7,90.4h0.7l-1-1.5
	c0.5-0.1,0.9-0.3,0.9-1c0-0.7-0.4-1-1.3-1h-1.4v3.5h0.6v-1.5h0.5L124.7,90.4L124.7,90.4z M123.3,88.4v-1h0.7c0.4,0,0.8,0.1,0.8,0.5
	c0,0.5-0.4,0.5-0.8,0.5L123.3,88.4L123.3,88.4z"/>
</svg>
