<?xml version="1.0" encoding="UTF-8"?>
<svg id="Layer_1" data-name="Layer 1" xmlns="http://www.w3.org/2000/svg" viewBox="0 0 202.25 208.58">
  <defs>
    <style>
      .cls-1 {
        fill: #3e17cb;
        stroke-width: 0px;
      }
    </style>
  </defs>
  <path class="cls-1" d="M150.62,84.71H51.62c-.78,0-1.42-.63-1.42-1.42s.63-1.42,1.42-1.42h99c.78,0,1.42.63,1.42,1.42s-.63,1.42-1.42,1.42Z"/>
  <path class="cls-1" d="M150.62,105.71h-76c-.78,0-1.42-.63-1.42-1.42s.63-1.42,1.42-1.42h76c.78,0,1.42.63,1.42,1.42s-.63,1.42-1.42,1.42Z"/>
  <path class="cls-1" d="M150.62,126.71h-62c-.78,0-1.42-.63-1.42-1.42s.63-1.42,1.42-1.42h62c.78,0,1.42.63,1.42,1.42s-.63,1.42-1.42,1.42Z"/>
</svg>