<?xml version="1.0" encoding="UTF-8"?>
<svg id="Layer_1" data-name="Layer 1" xmlns="http://www.w3.org/2000/svg" viewBox="0 0 202.25 208.58">
  <defs>
    <style>
      .cls-1 {
        fill: #2d368e;
      }

      .cls-1, .cls-2, .cls-3 {
        stroke-width: 0px;
      }

      .cls-2 {
        fill: #3e17cb;
      }

      .cls-3 {
        fill: #fdc75d;
      }
    </style>
  </defs>
  <path class="cls-3" d="M29.73,39.6h-4.39l-8.64-13.95-8.57,13.95H3.73l10.89-17.36L3.78,5.54h4.54l8.38,13.49,8.45-13.49h4.35l-10.67,16.7,10.91,17.36Z"/>
  <path class="cls-2" d="M47.5,40c-9.51,0-17.25-7.74-17.25-17.25s7.74-17.25,17.25-17.25,17.25,7.74,17.25,17.25-7.74,17.25-17.25,17.25ZM47.5,8.71c-7.74,0-14.04,6.3-14.04,14.04s6.3,14.04,14.04,14.04,14.04-6.3,14.04-14.04-6.3-14.04-14.04-14.04Z"/>
  <path class="cls-3" d="M91.73,39.54h-4.39l-8.64-13.95-8.57,13.95h-4.39l10.89-17.36-10.84-16.7h4.54l8.38,13.49,8.45-13.49h4.35l-10.67,16.7,10.91,17.36Z"/>
  <path class="cls-2" d="M111.73,39.76c-9.51,0-17.25-7.74-17.25-17.25s7.74-17.25,17.25-17.25,17.25,7.74,17.25,17.25-7.74,17.25-17.25,17.25ZM111.73,8.47c-7.74,0-14.04,6.3-14.04,14.04s6.3,14.04,14.04,14.04,14.04-6.3,14.04-14.04-6.3-14.04-14.04-14.04Z"/>
  <path class="cls-3" d="M157.73,39.54h-4.39l-8.64-13.95-8.57,13.95h-4.39l10.89-17.36-10.84-16.7h4.54l8.38,13.49,8.45-13.49h4.35l-10.67,16.7,10.91,17.36Z"/>
  <path class="cls-2" d="M179.73,39.76c-9.51,0-17.25-7.74-17.25-17.25s7.74-17.25,17.25-17.25,17.25,7.74,17.25,17.25-7.74,17.25-17.25,17.25ZM179.73,8.47c-7.74,0-14.04,6.3-14.04,14.04s6.3,14.04,14.04,14.04,14.04-6.3,14.04-14.04-6.3-14.04-14.04-14.04Z"/>
  <path class="cls-3" d="M170.36,48.53h4.39s8.64,13.95,8.64,13.95l8.57-13.95h4.39s-10.89,17.36-10.89,17.36l10.84,16.7h-4.54s-8.38-13.49-8.38-13.49l-8.45,13.49h-4.35s10.67-16.7,10.67-16.7l-10.91-17.36Z"/>
  <path class="cls-2" d="M152.59,48.13c9.51,0,17.25,7.74,17.25,17.25s-7.74,17.25-17.25,17.25c-9.51,0-17.25-7.74-17.25-17.25,0-9.51,7.74-17.25,17.25-17.25ZM152.59,79.42c7.74,0,14.04-6.3,14.04-14.04,0-7.74-6.3-14.04-14.04-14.04s-14.04,6.3-14.04,14.04,6.3,14.04,14.04,14.04Z"/>
  <path class="cls-3" d="M108.36,48.6h4.39s8.64,13.95,8.64,13.95l8.57-13.95h4.39s-10.89,17.36-10.89,17.36l10.84,16.7h-4.54s-8.38-13.49-8.38-13.49l-8.45,13.49h-4.35s10.67-16.7,10.67-16.7l-10.91-17.36Z"/>
  <path class="cls-1" d="M88.36,48.38c9.51,0,17.25,7.74,17.25,17.25s-7.74,17.25-17.25,17.25-17.25-7.74-17.25-17.25,7.74-17.25,17.25-17.25ZM88.36,79.66c7.74,0,14.04-6.3,14.04-14.04,0-7.74-6.3-14.04-14.04-14.04s-14.04,6.3-14.04,14.04c0,7.74,6.3,14.04,14.04,14.04Z"/>
  <path class="cls-3" d="M42.36,48.6h4.39s8.64,13.95,8.64,13.95l8.57-13.95h4.39s-10.89,17.36-10.89,17.36l10.84,16.7h-4.54s-8.38-13.49-8.38-13.49l-8.45,13.49h-4.35s10.67-16.7,10.67-16.7l-10.91-17.36Z"/>
  <path class="cls-2" d="M20.36,48.38c9.51,0,17.25,7.74,17.25,17.25s-7.74,17.25-17.25,17.25-17.25-7.74-17.25-17.25c0-9.51,7.74-17.25,17.25-17.25ZM20.36,79.66c7.74,0,14.04-6.3,14.04-14.04,0-7.74-6.3-14.04-14.04-14.04-7.74,0-14.04,6.3-14.04,14.04,0,7.74,6.3,14.04,14.04,14.04Z"/>
  <path class="cls-3" d="M31.1,122.48h-4.39l-8.64-13.95-8.57,13.95h-4.39l10.89-17.36-10.84-16.7h4.54l8.38,13.49,8.45-13.49h4.35l-10.67,16.7,10.91,17.36Z"/>
  <path class="cls-2" d="M48.88,122.88c-9.51,0-17.25-7.74-17.25-17.25s7.74-17.25,17.25-17.25,17.25,7.74,17.25,17.25-7.74,17.25-17.25,17.25ZM48.88,91.59c-7.74,0-14.04,6.3-14.04,14.04s6.3,14.04,14.04,14.04,14.04-6.3,14.04-14.04-6.3-14.04-14.04-14.04Z"/>
  <path class="cls-3" d="M93.1,122.41h-4.39l-8.64-13.95-8.57,13.95h-4.39l10.89-17.36-10.84-16.7h4.54l8.38,13.49,8.45-13.49h4.35l-10.67,16.7,10.91,17.36Z"/>
  <path class="cls-2" d="M113.11,122.63c-9.51,0-17.25-7.74-17.25-17.25s7.74-17.25,17.25-17.25,17.25,7.74,17.25,17.25-7.74,17.25-17.25,17.25ZM113.11,91.35c-7.74,0-14.04,6.3-14.04,14.04s6.3,14.04,14.04,14.04,14.04-6.3,14.04-14.04-6.3-14.04-14.04-14.04Z"/>
  <path class="cls-3" d="M159.1,122.41h-4.39l-8.64-13.95-8.57,13.95h-4.39l10.89-17.36-10.84-16.7h4.54l8.38,13.49,8.45-13.49h4.35l-10.67,16.7,10.91,17.36Z"/>
  <path class="cls-2" d="M181.11,122.63c-9.51,0-17.25-7.74-17.25-17.25s7.74-17.25,17.25-17.25,17.25,7.74,17.25,17.25-7.74,17.25-17.25,17.25ZM181.11,91.35c-7.74,0-14.04,6.3-14.04,14.04s6.3,14.04,14.04,14.04,14.04-6.3,14.04-14.04-6.3-14.04-14.04-14.04Z"/>
  <path class="cls-3" d="M171.36,128.53h4.39s8.64,13.95,8.64,13.95l8.57-13.95h4.39s-10.89,17.36-10.89,17.36l10.84,16.7h-4.54s-8.38-13.49-8.38-13.49l-8.45,13.49h-4.35s10.67-16.7,10.67-16.7l-10.91-17.36Z"/>
  <path class="cls-2" d="M153.59,128.13c9.51,0,17.25,7.74,17.25,17.25s-7.74,17.25-17.25,17.25-17.25-7.74-17.25-17.25c0-9.51,7.74-17.25,17.25-17.25ZM153.59,159.42c7.74,0,14.04-6.3,14.04-14.04,0-7.74-6.3-14.04-14.04-14.04-7.74,0-14.04,6.3-14.04,14.04s6.3,14.04,14.04,14.04Z"/>
  <path class="cls-3" d="M109.36,128.6h4.39s8.64,13.95,8.64,13.95l8.57-13.95h4.39s-10.89,17.36-10.89,17.36l10.84,16.7h-4.54s-8.38-13.49-8.38-13.49l-8.45,13.49h-4.35s10.67-16.7,10.67-16.7l-10.91-17.36Z"/>
  <path class="cls-2" d="M89.36,128.38c9.51,0,17.25,7.74,17.25,17.25s-7.74,17.25-17.25,17.25c-9.51,0-17.25-7.74-17.25-17.25s7.74-17.25,17.25-17.25ZM89.36,159.66c7.74,0,14.04-6.3,14.04-14.04,0-7.74-6.3-14.04-14.04-14.04-7.74,0-14.04,6.3-14.04,14.04,0,7.74,6.3,14.04,14.04,14.04Z"/>
  <path class="cls-3" d="M43.36,128.6h4.39s8.64,13.95,8.64,13.95l8.57-13.95h4.39s-10.89,17.36-10.89,17.36l10.84,16.7h-4.54s-8.38-13.49-8.38-13.49l-8.45,13.49h-4.35s10.67-16.7,10.67-16.7l-10.91-17.36Z"/>
  <path class="cls-2" d="M21.36,128.38c9.51,0,17.25,7.74,17.25,17.25s-7.74,17.25-17.25,17.25c-9.51,0-17.25-7.74-17.25-17.25,0-9.51,7.74-17.25,17.25-17.25ZM21.36,159.66c7.74,0,14.04-6.3,14.04-14.04,0-7.74-6.3-14.04-14.04-14.04-7.74,0-14.04,6.3-14.04,14.04,0,7.74,6.3,14.04,14.04,14.04Z"/>
  <path class="cls-3" d="M29.1,203.48h-4.39l-8.64-13.95-8.57,13.95H3.11l10.89-17.36-10.84-16.7h4.54l8.38,13.49,8.45-13.49h4.35l-10.67,16.7,10.91,17.36Z"/>
  <path class="cls-2" d="M46.88,203.88c-9.51,0-17.25-7.74-17.25-17.25s7.74-17.25,17.25-17.25,17.25,7.74,17.25,17.25-7.74,17.25-17.25,17.25ZM46.88,172.59c-7.74,0-14.04,6.3-14.04,14.04s6.3,14.04,14.04,14.04,14.04-6.3,14.04-14.04-6.3-14.04-14.04-14.04Z"/>
  <path class="cls-3" d="M91.1,203.41h-4.39l-8.64-13.95-8.57,13.95h-4.39l10.89-17.36-10.84-16.7h4.54l8.38,13.49,8.45-13.49h4.35l-10.67,16.7,10.91,17.36Z"/>
  <path class="cls-2" d="M111.11,203.63c-9.51,0-17.25-7.74-17.25-17.25s7.74-17.25,17.25-17.25,17.25,7.74,17.25,17.25-7.74,17.25-17.25,17.25ZM111.11,172.35c-7.74,0-14.04,6.3-14.04,14.04s6.3,14.04,14.04,14.04,14.04-6.3,14.04-14.04-6.3-14.04-14.04-14.04Z"/>
  <path class="cls-3" d="M157.1,203.41h-4.39l-8.64-13.95-8.57,13.95h-4.39l10.89-17.36-10.84-16.7h4.54l8.38,13.49,8.45-13.49h4.35l-10.67,16.7,10.91,17.36Z"/>
  <path class="cls-2" d="M179.11,203.63c-9.51,0-17.25-7.74-17.25-17.25s7.74-17.25,17.25-17.25,17.25,7.74,17.25,17.25-7.74,17.25-17.25,17.25ZM179.11,172.35c-7.74,0-14.04,6.3-14.04,14.04s6.3,14.04,14.04,14.04,14.04-6.3,14.04-14.04-6.3-14.04-14.04-14.04Z"/>
</svg>