<?xml version="1.0" encoding="utf-8"?>
<!-- Generator: Adobe Illustrator 28.2.0, SVG Export Plug-In . SVG Version: 6.00 Build 0)  -->
<svg version="1.1" id="Layer_1" xmlns="http://www.w3.org/2000/svg" xmlns:xlink="http://www.w3.org/1999/xlink" x="0px" y="0px"
	 viewBox="0 0 400 400" style="enable-background:new 0 0 400 400;" xml:space="preserve">
<style type="text/css">
	.st0{fill:#3E17CB;}
</style>
<path class="st0" d="M133.9,137.9h-4.4l-8.6-13.9l-8.6,13.9h-4.4l10.9-17.4l-10.8-16.7h4.5l8.4,13.5l8.5-13.5h4.3L123,120.6
	L133.9,137.9L133.9,137.9z"/>
<path class="st0" d="M173.4,137.9h-4.4l-8.6-13.9l-8.6,13.9h-4.4l10.9-17.4l-10.8-16.7h4.5l8.4,13.5l8.4-13.5h4.4l-10.7,16.7
	L173.4,137.9L173.4,137.9z"/>
<path class="st0" d="M213,137.9h-4.4L200,124l-8.6,13.9H187l10.9-17.4l-10.8-16.7h4.5l8.4,13.5l8.4-13.5h4.3l-10.7,16.7L213,137.9
	L213,137.9z"/>
<path class="st0" d="M252.6,137.9h-4.4l-8.6-13.9l-8.6,13.9h-4.4l10.9-17.4l-10.8-16.7h4.5l8.4,13.5l8.4-13.5h4.3l-10.7,16.7
	L252.6,137.9L252.6,137.9z"/>
<path class="st0" d="M292.1,137.9h-4.4l-8.6-13.9l-8.6,13.9h-4.4l10.9-17.4l-10.8-16.7h4.5l8.4,13.5l8.4-13.5h4.3l-10.7,16.7
	L292.1,137.9L292.1,137.9z"/>
<path class="st0" d="M133.9,177.5h-4.4l-8.6-13.9l-8.6,13.9h-4.4l10.9-17.4L108,143.4h4.5l8.4,13.5l8.4-13.5h4.4L123,160.1
	L133.9,177.5L133.9,177.5z"/>
<path class="st0" d="M173.4,177.5h-4.4l-8.6-13.9l-8.6,13.9h-4.4l10.9-17.4l-10.8-16.7h4.5l8.4,13.5l8.4-13.5h4.4l-10.7,16.7
	L173.4,177.5L173.4,177.5z"/>
<path class="st0" d="M213,177.5h-4.4l-8.6-13.9l-8.6,13.9H187l10.9-17.4l-10.8-16.7h4.5l8.4,13.5l8.4-13.5h4.3l-10.7,16.7L213,177.5
	L213,177.5z"/>
<path class="st0" d="M252.6,177.5h-4.4l-8.6-13.9l-8.6,13.9h-4.4l10.9-17.4l-10.8-16.7h4.5l8.4,13.5l8.4-13.5h4.3l-10.7,16.7
	L252.6,177.5L252.6,177.5z"/>
<path class="st0" d="M292.1,177.5h-4.4l-8.6-13.9l-8.6,13.9h-4.4l10.9-17.4l-10.8-16.7h4.5l8.4,13.5l8.4-13.5h4.3l-10.7,16.7
	L292.1,177.5L292.1,177.5z"/>
<path class="st0" d="M133.9,217h-4.4l-8.6-13.9l-8.6,13.9h-4.4l10.9-17.4L108,183h4.5l8.4,13.5l8.4-13.5h4.4L123,199.7L133.9,217
	L133.9,217z"/>
<path class="st0" d="M173.4,217h-4.4l-8.6-13.9l-8.6,13.9h-4.4l10.9-17.4L147.5,183h4.5l8.4,13.5l8.4-13.5h4.4l-10.7,16.7L173.4,217
	L173.4,217z"/>
<path class="st0" d="M213,217h-4.4l-8.6-13.9l-8.6,13.9H187l10.9-17.4L187.1,183h4.5l8.4,13.5l8.4-13.5h4.3l-10.7,16.7L213,217
	L213,217z"/>
<path class="st0" d="M252.6,217h-4.4l-8.6-13.9L231,217h-4.4l10.9-17.4L226.6,183h4.5l8.4,13.5L248,183h4.3l-10.7,16.7L252.6,217
	L252.6,217z"/>
<path class="st0" d="M292.1,217h-4.4l-8.6-13.9l-8.6,13.9h-4.4l10.9-17.4L266.2,183h4.5l8.4,13.5l8.4-13.5h4.3l-10.7,16.7L292.1,217
	L292.1,217z"/>
<path class="st0" d="M133.9,256.6h-4.4l-8.6-13.9l-8.6,13.9h-4.4l10.9-17.4L108,222.5h4.5l8.4,13.5l8.4-13.5h4.4L123,239.2
	L133.9,256.6L133.9,256.6z"/>
<path class="st0" d="M173.4,256.6h-4.4l-8.6-13.9l-8.6,13.9h-4.4l10.9-17.4l-10.8-16.7h4.5l8.4,13.5l8.4-13.5h4.4l-10.7,16.7
	L173.4,256.6L173.4,256.6z"/>
<path class="st0" d="M213,256.6h-4.4l-8.6-13.9l-8.6,13.9H187l10.9-17.4l-10.8-16.7h4.5L200,236l8.4-13.5h4.3l-10.7,16.7L213,256.6
	L213,256.6z"/>
<path class="st0" d="M252.6,256.6h-4.4l-8.6-13.9l-8.6,13.9h-4.4l10.9-17.4l-10.8-16.7h4.5l8.4,13.5l8.4-13.5h4.3l-10.7,16.7
	L252.6,256.6L252.6,256.6z"/>
<path class="st0" d="M292.1,256.6h-4.4l-8.6-13.9l-8.6,13.9h-4.4l10.9-17.4l-10.8-16.7h4.5l8.4,13.5l8.4-13.5h4.3l-10.7,16.7
	L292.1,256.6L292.1,256.6z"/>
<path class="st0" d="M133.9,296.1h-4.4l-8.6-14l-8.6,14h-4.4l10.9-17.4L108,262.1h4.5l8.4,13.5l8.4-13.5h4.4L123,278.8L133.9,296.1
	L133.9,296.1z"/>
<path class="st0" d="M173.4,296.1h-4.4l-8.6-14l-8.6,14h-4.4l10.9-17.4l-10.8-16.7h4.5l8.4,13.5l8.4-13.5h4.4l-10.7,16.7
	L173.4,296.1L173.4,296.1z"/>
<path class="st0" d="M213,296.1h-4.4l-8.6-14l-8.6,14H187l10.9-17.4l-10.8-16.7h4.5l8.4,13.5l8.4-13.5h4.3l-10.7,16.7L213,296.1
	L213,296.1z"/>
<path class="st0" d="M252.6,296.1h-4.4l-8.6-14l-8.6,14h-4.4l10.9-17.4l-10.8-16.7h4.5l8.4,13.5l8.4-13.5h4.3l-10.7,16.7
	L252.6,296.1L252.6,296.1z"/>
<path class="st0" d="M292.1,296.1h-4.4l-8.6-14l-8.6,14h-4.4l10.9-17.4l-10.8-16.7h4.5l8.4,13.5l8.4-13.5h4.3l-10.7,16.7
	L292.1,296.1L292.1,296.1z"/>
<path class="st0" d="M331.7,137.9h-4.4l-8.6-14l-8.6,14h-4.4l10.9-17.4l-10.8-16.7h4.5l8.4,13.5l8.5-13.5h4.3l-10.7,16.7
	L331.7,137.9L331.7,137.9z"/>
<path class="st0" d="M331.7,177.5h-4.4l-8.6-13.9l-8.6,13.9h-4.4l10.9-17.4l-10.8-16.7h4.5l8.4,13.5l8.5-13.5h4.3l-10.7,16.7
	L331.7,177.5L331.7,177.5z"/>
<path class="st0" d="M331.7,217h-4.4l-8.6-13.9l-8.6,13.9h-4.4l10.9-17.4L305.7,183h4.5l8.4,13.5l8.5-13.5h4.3l-10.7,16.7L331.7,217
	L331.7,217z"/>
<path class="st0" d="M331.7,256.6h-4.4l-8.6-13.9l-8.6,13.9h-4.4l10.9-17.4l-10.8-16.7h4.5l8.4,13.5l8.5-13.5h4.3l-10.7,16.7
	L331.7,256.6L331.7,256.6z"/>
<path class="st0" d="M331.7,296.1h-4.4l-8.6-14l-8.6,14h-4.4l10.9-17.4l-10.8-16.7h4.5l8.4,13.5l8.5-13.5h4.3l-10.7,16.7
	L331.7,296.1L331.7,296.1z"/>
<path class="st0" d="M95.3,137.9H91l-8.6-14l-8.6,14h-4.4l10.9-17.4l-10.8-16.7h4.5l8.4,13.5l8.4-13.5h4.3l-10.7,16.7L95.3,137.9
	L95.3,137.9z"/>
<path class="st0" d="M95.3,177.5H91l-8.6-13.9l-8.6,13.9h-4.4l10.9-17.4l-10.8-16.7h4.5l8.4,13.5l8.4-13.5h4.3l-10.7,16.7
	L95.3,177.5L95.3,177.5z"/>
<path class="st0" d="M95.3,217H91l-8.6-13.9L73.7,217h-4.4l10.9-17.4L69.4,183h4.5l8.4,13.5l8.4-13.5h4.3l-10.7,16.7L95.3,217
	L95.3,217z"/>
<path class="st0" d="M95.3,256.6H91l-8.6-13.9l-8.6,13.9h-4.4l10.9-17.4l-10.8-16.7h4.5l8.4,13.5l8.4-13.5h4.3l-10.7,16.7
	L95.3,256.6L95.3,256.6z"/>
<path class="st0" d="M95.3,296.1H91l-8.6-14l-8.6,14h-4.4l10.9-17.4l-10.8-16.7h4.5l8.4,13.5l8.4-13.5h4.3l-10.7,16.7L95.3,296.1
	L95.3,296.1z"/>
</svg>
