<?xml version="1.0" encoding="UTF-8"?>
<svg id="Layer_1" data-name="Layer 1" xmlns="http://www.w3.org/2000/svg" viewBox="0 0 202.25 208.58">
  <defs>
    <style>
      .cls-1 {
        fill: #3e17cb;
        stroke-width: 0px;
      }
    </style>
  </defs>
  <path class="cls-1" d="M35.02,42.22h-4.39l-8.64-13.95-8.57,13.95h-4.39l10.89-17.36L9.07,8.16h4.54l8.38,13.49,8.45-13.49h4.35l-10.67,16.7,10.91,17.36Z"/>
  <path class="cls-1" d="M74.57,42.22h-4.39l-8.64-13.95-8.57,13.95h-4.39l10.89-17.36-10.84-16.7h4.54l8.38,13.49,8.45-13.49h4.35l-10.67,16.7,10.91,17.36Z"/>
  <path class="cls-1" d="M114.12,42.22h-4.39l-8.64-13.95-8.57,13.95h-4.39l10.89-17.36-10.84-16.7h4.54l8.38,13.49,8.45-13.49h4.35l-10.67,16.7,10.91,17.36Z"/>
  <path class="cls-1" d="M153.68,42.22h-4.39l-8.64-13.95-8.57,13.95h-4.39l10.89-17.36-10.84-16.7h4.54l8.38,13.49,8.45-13.49h4.34l-10.67,16.7,10.91,17.36Z"/>
  <path class="cls-1" d="M193.23,42.22h-4.39l-8.64-13.95-8.57,13.95h-4.39l10.89-17.36-10.84-16.7h4.54l8.38,13.49,8.45-13.49h4.34l-10.67,16.7,10.91,17.36Z"/>
  <path class="cls-1" d="M35.02,81.77h-4.39l-8.64-13.95-8.57,13.95h-4.39l10.89-17.36-10.84-16.7h4.54l8.38,13.49,8.45-13.49h4.35l-10.67,16.7,10.91,17.36Z"/>
  <path class="cls-1" d="M74.57,81.77h-4.39l-8.64-13.95-8.57,13.95h-4.39l10.89-17.36-10.84-16.7h4.54l8.38,13.49,8.45-13.49h4.35l-10.67,16.7,10.91,17.36Z"/>
  <path class="cls-1" d="M114.12,81.77h-4.39l-8.64-13.95-8.57,13.95h-4.39l10.89-17.36-10.84-16.7h4.54l8.38,13.49,8.45-13.49h4.35l-10.67,16.7,10.91,17.36Z"/>
  <path class="cls-1" d="M153.68,81.77h-4.39l-8.64-13.95-8.57,13.95h-4.39l10.89-17.36-10.84-16.7h4.54l8.38,13.49,8.45-13.49h4.34l-10.67,16.7,10.91,17.36Z"/>
  <path class="cls-1" d="M193.23,81.77h-4.39l-8.64-13.95-8.57,13.95h-4.39l10.89-17.36-10.84-16.7h4.54l8.38,13.49,8.45-13.49h4.34l-10.67,16.7,10.91,17.36Z"/>
  <path class="cls-1" d="M35.02,121.32h-4.39l-8.64-13.95-8.57,13.95h-4.39l10.89-17.36-10.84-16.7h4.54l8.38,13.49,8.45-13.49h4.35l-10.67,16.7,10.91,17.36Z"/>
  <path class="cls-1" d="M74.57,121.32h-4.39l-8.64-13.95-8.57,13.95h-4.39l10.89-17.36-10.84-16.7h4.54l8.38,13.49,8.45-13.49h4.35l-10.67,16.7,10.91,17.36Z"/>
  <path class="cls-1" d="M114.12,121.32h-4.39l-8.64-13.95-8.57,13.95h-4.39l10.89-17.36-10.84-16.7h4.54l8.38,13.49,8.45-13.49h4.35l-10.67,16.7,10.91,17.36Z"/>
  <path class="cls-1" d="M153.68,121.32h-4.39l-8.64-13.95-8.57,13.95h-4.39l10.89-17.36-10.84-16.7h4.54l8.38,13.49,8.45-13.49h4.34l-10.67,16.7,10.91,17.36Z"/>
  <path class="cls-1" d="M193.23,121.32h-4.39l-8.64-13.95-8.57,13.95h-4.39l10.89-17.36-10.84-16.7h4.54l8.38,13.49,8.45-13.49h4.34l-10.67,16.7,10.91,17.36Z"/>
  <path class="cls-1" d="M35.02,160.87h-4.39l-8.64-13.95-8.57,13.95h-4.39l10.89-17.36-10.84-16.7h4.54l8.38,13.49,8.45-13.49h4.35l-10.67,16.7,10.91,17.36Z"/>
  <path class="cls-1" d="M74.57,160.87h-4.39l-8.64-13.95-8.57,13.95h-4.39l10.89-17.36-10.84-16.7h4.54l8.38,13.49,8.45-13.49h4.35l-10.67,16.7,10.91,17.36Z"/>
  <path class="cls-1" d="M114.12,160.87h-4.39l-8.64-13.95-8.57,13.95h-4.39l10.89-17.36-10.84-16.7h4.54l8.38,13.49,8.45-13.49h4.35l-10.67,16.7,10.91,17.36Z"/>
  <path class="cls-1" d="M153.68,160.87h-4.39l-8.64-13.95-8.57,13.95h-4.39l10.89-17.36-10.84-16.7h4.54l8.38,13.49,8.45-13.49h4.34l-10.67,16.7,10.91,17.36Z"/>
  <path class="cls-1" d="M193.23,160.87h-4.39l-8.64-13.95-8.57,13.95h-4.39l10.89-17.36-10.84-16.7h4.54l8.38,13.49,8.45-13.49h4.34l-10.67,16.7,10.91,17.36Z"/>
  <path class="cls-1" d="M35.02,200.42h-4.39l-8.64-13.95-8.57,13.95h-4.39l10.89-17.36-10.84-16.7h4.54l8.38,13.49,8.45-13.49h4.35l-10.67,16.7,10.91,17.36Z"/>
  <path class="cls-1" d="M74.57,200.42h-4.39l-8.64-13.95-8.57,13.95h-4.39l10.89-17.36-10.84-16.7h4.54l8.38,13.49,8.45-13.49h4.35l-10.67,16.7,10.91,17.36Z"/>
  <path class="cls-1" d="M114.12,200.42h-4.39l-8.64-13.95-8.57,13.95h-4.39l10.89-17.36-10.84-16.7h4.54l8.38,13.49,8.45-13.49h4.35l-10.67,16.7,10.91,17.36Z"/>
  <path class="cls-1" d="M153.68,200.42h-4.39l-8.64-13.95-8.57,13.95h-4.39l10.89-17.36-10.84-16.7h4.54l8.38,13.49,8.45-13.49h4.34l-10.67,16.7,10.91,17.36Z"/>
  <path class="cls-1" d="M193.23,200.42h-4.39l-8.64-13.95-8.57,13.95h-4.39l10.89-17.36-10.84-16.7h4.54l8.38,13.49,8.45-13.49h4.34l-10.67,16.7,10.91,17.36Z"/>
</svg>